<svg width="258" height="102" viewBox="0 0 258 102" fill="none" xmlns="http://www.w3.org/2000/svg">
<g filter="url(#filter0_d_181_17)">
<path d="M7.94399 64.568C5.98133 64.568 4.99999 63.5867 4.99999 61.624C4.99999 61.4107 5.02133 61.1974 5.06399 60.984C5.06399 60.7707 5.08533 60.5574 5.12799 60.344C5.46933 58.808 6.19466 57.336 7.30399 55.928C8.41333 54.52 9.71466 53.1974 11.208 51.96C12.7013 50.7654 14.216 49.6347 15.752 48.568C17.3307 47.544 18.7387 46.648 19.976 45.88C20.7013 45.4107 21.6187 44.8347 22.728 44.152C23.88 43.4694 25.096 42.7227 26.376 41.912C27.656 41.144 28.872 40.4187 30.024 39.736C30.4933 38.5414 30.8133 37.2187 30.984 35.768C31.1973 34.2747 31.304 32.888 31.304 31.608V31.096C30.792 31.864 30.0453 32.76 29.064 33.784C28.0827 34.808 26.9733 35.8107 25.736 36.792C24.4987 37.7307 23.2827 38.52 22.088 39.16C20.8933 39.8 19.8053 40.12 18.824 40.12C18.1413 40.12 17.672 39.9067 17.416 39.48C17.2027 39.0534 17.096 38.5627 17.096 38.008C17.096 36.5147 17.416 34.9787 18.056 33.4C18.696 31.8214 19.4213 30.3707 20.232 29.048C21.0427 27.6827 21.768 26.552 22.408 25.656C23.048 24.7174 23.368 24.184 23.368 24.056C23.368 24.0134 23.3253 23.992 23.24 23.992C23.0693 23.992 22.8773 23.992 22.664 23.992C22.4933 23.992 22.472 23.864 22.6 23.608C23.1973 22.8827 23.944 22.2427 24.84 21.688C25.736 21.1334 26.5893 20.856 27.4 20.856C27.6987 20.856 28.04 20.984 28.424 21.24C28.8507 21.4534 29.064 21.7307 29.064 22.072C29.064 22.2854 28.936 22.52 28.68 22.776C28.3813 23.0747 28.0187 23.416 27.592 23.8C27.208 24.184 26.6747 24.7814 25.992 25.592C25.608 26.0187 25.0747 26.7227 24.392 27.704C23.7093 28.6427 23.0053 29.7307 22.28 30.968C21.5547 32.1627 20.936 33.3574 20.424 34.552C19.9547 35.704 19.72 36.7067 19.72 37.56C19.72 37.688 19.72 37.8374 19.72 38.008C19.7627 38.136 19.8693 38.264 20.04 38.392C20.6373 38.4347 21.384 38.1787 22.28 37.624C23.176 37.0267 24.1147 36.28 25.096 35.384C26.12 34.4454 27.08 33.464 27.976 32.44C28.9147 31.3734 29.7253 30.392 30.408 29.496C31.1333 28.5574 31.6453 27.8107 31.944 27.256C32.4133 26.4027 33.1173 25.976 34.056 25.976C34.7387 25.976 35.1227 26.1254 35.208 26.424C35.336 26.7227 35.4 27.128 35.4 27.64C35.4 29.304 35.2933 30.776 35.08 32.056C34.9093 33.2934 34.568 34.7014 34.056 36.28C36.7867 33.9334 39.3893 31.4587 41.864 28.856C41.9067 28.7707 41.992 28.664 42.12 28.536C42.2907 28.408 42.4187 28.344 42.504 28.344C42.76 28.344 42.888 28.472 42.888 28.728C42.888 29.0694 42.76 29.4107 42.504 29.752C42.12 30.2214 41.6933 30.6907 41.224 31.16C40.7973 31.6294 40.3707 32.0987 39.944 32.568C38.92 33.6774 37.8747 34.7867 36.808 35.896C35.7413 36.9627 34.6107 37.9867 33.416 38.968C31.4533 44.1307 28.872 48.6534 25.672 52.536C22.5147 56.4614 18.5253 59.8107 13.704 62.584C12.8933 63.0534 11.976 63.5014 10.952 63.928C9.92799 64.3547 8.92533 64.568 7.94399 64.568ZM9.41599 62.968C10.568 62.968 11.8267 62.5414 13.192 61.688C14.5147 60.8774 15.8373 59.8534 17.16 58.616C18.4827 57.3787 19.6773 56.1414 20.744 54.904C21.8533 53.7094 22.728 52.7067 23.368 51.896C24.0933 50.9147 24.7973 49.9334 25.48 48.952C26.1627 48.0134 26.8027 47.032 27.4 46.008C28.296 44.5147 29.0427 43.064 29.64 41.656C29.6827 41.528 29.64 41.4427 29.512 41.4C29.4267 41.4 29.384 41.4 29.384 41.4C28.0613 42.3387 26.7173 43.256 25.352 44.152C24.0293 45.0907 22.6853 46.008 21.32 46.904C20.6373 47.3307 19.72 47.9494 18.568 48.76C17.416 49.6134 16.1787 50.552 14.856 51.576C13.5333 52.6427 12.2747 53.7307 11.08 54.84C9.88533 55.992 8.90399 57.1014 8.13599 58.168C7.36799 59.2774 6.98399 60.2587 6.98399 61.112C6.98399 61.7947 7.26133 62.264 7.81599 62.52C8.32799 62.8187 8.86133 62.968 9.41599 62.968ZM51.3065 40.76C50.0692 40.76 49.1518 40.2694 48.5545 39.288C47.9572 38.264 47.6585 37.2187 47.6585 36.152C47.6585 34.7014 48.0425 33.144 48.8105 31.48C49.5785 29.7734 50.4958 28.152 51.5625 26.616C52.6718 25.08 53.6532 23.8214 54.5065 22.84C54.7198 22.584 54.9972 22.456 55.3385 22.456C55.7225 22.456 56.1065 22.6054 56.4905 22.904C57.3865 22.264 58.4105 21.688 59.5625 21.176C60.7572 20.664 61.9092 20.408 63.0185 20.408C64.9385 20.408 65.8985 21.3894 65.8985 23.352C65.8985 25.2294 65.4292 26.9574 64.4905 28.536C63.5945 30.1147 62.5918 31.6507 61.4825 33.144C61.1838 33.528 60.8852 33.8907 60.5865 34.232C60.3305 34.5734 60.0318 34.9147 59.6905 35.256C61.5678 34.744 63.2105 33.8907 64.6185 32.696C66.0265 31.5014 67.4132 30.264 68.7785 28.984C68.9492 28.8134 69.0985 28.6854 69.2265 28.6C69.3972 28.472 69.6105 28.408 69.8665 28.408C70.0798 28.408 70.1865 28.5574 70.1865 28.856C70.1865 28.8987 70.1225 29.0054 69.9945 29.176C69.8665 29.3467 69.7812 29.4747 69.7385 29.56C68.3305 31.2667 66.5812 32.8667 64.4905 34.36C62.4425 35.8107 60.2878 36.7067 58.0265 37.048C57.2158 37.8587 56.1918 38.6907 54.9545 39.544C53.7172 40.3547 52.5012 40.76 51.3065 40.76ZM56.2985 35.704C56.4692 35.704 56.6185 35.704 56.7465 35.704C56.9172 35.704 57.0878 35.6827 57.2585 35.64C58.1118 34.616 58.9865 33.4 59.8825 31.992C60.8212 30.584 61.6105 29.1334 62.2505 27.64C62.8905 26.104 63.2105 24.7174 63.2105 23.48C63.2105 22.712 62.8478 22.328 62.1225 22.328C61.3972 22.328 60.5652 22.5414 59.6265 22.968C58.6878 23.3947 57.8985 23.8427 57.2585 24.312V24.504C57.2585 24.9307 56.9172 25.5494 56.2345 26.36C55.5945 27.128 54.8905 27.9174 54.1225 28.728C53.3972 29.5387 52.8638 30.2214 52.5225 30.776C52.3945 32.184 52.6718 33.3574 53.3545 34.296C54.0372 35.2347 55.0185 35.704 56.2985 35.704ZM51.3705 39.672C52.1812 39.672 52.9705 39.3734 53.7385 38.776C54.5492 38.1787 55.2318 37.624 55.7865 37.112C54.7625 37.0267 53.8238 36.6854 52.9705 36.088C52.1598 35.448 51.4132 34.744 50.7305 33.976C50.6025 34.232 50.4318 34.7227 50.2185 35.448C50.0052 36.1734 49.8985 36.8987 49.8985 37.624C49.8985 38.1787 50.0052 38.6694 50.2185 39.096C50.4318 39.48 50.8158 39.672 51.3705 39.672ZM86.1845 40.76C85.5445 40.76 84.7978 40.5467 83.9445 40.12C83.0912 39.6934 82.6645 39.1174 82.6645 38.392C82.6645 37.752 82.8992 36.9414 83.3685 35.96C83.8378 34.9787 84.4138 33.9334 85.0965 32.824C85.7792 31.7147 86.4832 30.648 87.2085 29.624C87.9338 28.5574 88.5525 27.6614 89.0645 26.936C89.6192 26.168 89.9605 25.656 90.0885 25.4C90.6858 24.5894 91.0485 24.0774 91.1765 23.864C91.3045 23.6507 91.3898 23.48 91.4325 23.352C91.0912 23.608 90.5578 24.0134 89.8325 24.568C89.1072 25.08 88.3818 25.6134 87.6565 26.168C86.9312 26.7227 86.3978 27.1494 86.0565 27.448C83.6672 29.5387 81.6618 31.544 80.0405 33.464C78.4618 35.3414 76.9898 37.3467 75.6245 39.48C75.5818 39.5227 75.4752 39.5654 75.3045 39.608C75.1338 39.608 75.0058 39.608 74.9205 39.608C74.6645 39.608 74.2805 39.544 73.7685 39.416C73.2992 39.288 73.1072 39.0107 73.1925 38.584C73.4485 37.944 73.7898 37.2614 74.2165 36.536C74.6432 35.8107 75.2405 34.8294 76.0085 33.592C76.7765 32.312 77.7792 30.52 79.0165 28.216C79.4005 27.4907 80.0405 26.296 80.9365 24.632C81.8752 22.968 83.0058 21.0694 84.3285 18.936C85.6938 16.8027 87.2085 14.6907 88.8725 12.6C90.5792 10.4667 92.4138 8.56803 94.3765 6.90403C96.3392 5.24003 98.3872 4.04536 100.52 3.32003C101.075 3.10669 101.566 3.00003 101.992 3.00003C102.803 3.00003 103.358 3.27736 103.656 3.83203C103.998 4.34403 104.446 4.7707 105 5.11203C105.342 5.32536 105.512 5.6667 105.512 6.13603C105.512 6.8187 104.936 7.75736 103.784 8.95203C102.675 10.104 101.246 11.384 99.4965 12.792C97.7472 14.1574 95.9125 15.5227 93.9925 16.888C92.0725 18.2534 90.2592 19.512 88.5525 20.664C86.8885 21.816 85.6085 22.712 84.7125 23.352C84.5418 23.6934 84.2005 24.248 83.6885 25.016C83.2192 25.7414 82.7072 26.5307 82.1525 27.384C81.5978 28.2374 81.0858 29.0267 80.6165 29.752C80.1472 30.4774 79.8485 30.9894 79.7205 31.288C80.9152 30.1787 82.1738 29.0054 83.4965 27.768C84.8618 26.5307 86.1845 25.336 87.4645 24.184C88.7872 23.032 89.9392 22.0507 90.9205 21.24C91.1338 21.0694 91.3898 20.9627 91.6885 20.92C92.0298 20.8774 92.3072 20.856 92.5205 20.856C93.1178 20.856 93.8218 21.112 94.6325 21.624C95.4432 22.136 95.8485 22.7547 95.8485 23.48C95.8485 23.9494 95.5925 24.4187 95.0805 24.888C93.8005 26.04 92.4992 27.384 91.1765 28.92C89.8538 30.4134 88.6592 31.992 87.5925 33.656C87.2938 34.168 86.8672 34.9147 86.3125 35.896C85.8005 36.8774 85.5445 37.6667 85.5445 38.264C85.5445 38.6907 85.6725 38.904 85.9285 38.904C86.4405 38.904 87.1445 38.6267 88.0405 38.072C88.9792 37.5174 89.9818 36.8134 91.0485 35.96C92.1578 35.064 93.2458 34.1467 94.3125 33.208C95.4218 32.2694 96.4032 31.3947 97.2565 30.584C98.1098 29.7734 98.7285 29.1547 99.1125 28.728C99.3685 28.472 99.5818 28.344 99.7525 28.344C100.008 28.344 100.136 28.472 100.136 28.728C100.136 28.856 100.051 29.048 99.8805 29.304C99.3258 30.0294 98.5152 30.9467 97.4485 32.056C96.3818 33.1227 95.2085 34.232 93.9285 35.384C92.6485 36.4934 91.4112 37.5174 90.2165 38.456C89.0645 39.352 88.1045 40.0347 87.3365 40.504C87.0378 40.6747 86.6538 40.76 86.1845 40.76ZM86.0565 20.856C86.3978 20.6 86.9738 20.1947 87.7845 19.64C88.6378 19.0427 89.5765 18.3814 90.6005 17.656C91.6672 16.888 92.7125 16.1414 93.7365 15.416C94.7605 14.648 95.6138 13.9654 96.2965 13.368C97.6618 12.1734 98.7925 11.192 99.6885 10.424C100.627 9.65603 101.438 8.76003 102.12 7.73603C102.291 7.52269 102.398 7.33069 102.44 7.16003C102.483 6.98936 102.504 6.84003 102.504 6.71203C102.504 6.45603 102.376 6.26403 102.12 6.13603C101.907 6.00803 101.63 5.94403 101.288 5.94403C100.648 5.94403 99.8165 6.28536 98.7925 6.96803C97.7685 7.65069 96.6592 8.56803 95.4645 9.72003C94.2698 10.8294 93.0752 12.0454 91.8805 13.368C90.6858 14.6907 89.5765 16.0134 88.5525 17.336C87.5285 18.616 86.6965 19.7894 86.0565 20.856ZM108.576 39.48C106.016 39.48 104.736 38.2214 104.736 35.704C104.736 34.7227 104.992 33.592 105.504 32.312C106.059 30.9894 106.784 29.6667 107.68 28.344C108.576 27.0214 109.579 25.8054 110.688 24.696C111.797 23.544 112.928 22.6267 114.08 21.944C115.275 21.2187 116.384 20.856 117.408 20.856C117.749 20.856 117.984 20.9414 118.112 21.112C118.283 21.24 118.411 21.4747 118.496 21.816C118.581 21.9867 118.645 22.1787 118.688 22.392C118.731 22.6054 118.795 22.8187 118.88 23.032C119.051 23.3307 119.2 23.6294 119.328 23.928C119.456 24.2267 119.52 24.5467 119.52 24.888C119.52 25.3147 119.413 25.6987 119.2 26.04C118.987 26.3387 118.731 26.616 118.432 26.872C118.005 27.256 117.365 27.7467 116.512 28.344C115.659 28.8987 114.72 29.4747 113.696 30.072C112.715 30.6267 111.755 31.1174 110.816 31.544C109.92 31.9707 109.195 32.2267 108.64 32.312C108.256 32.9094 107.851 33.656 107.424 34.552C107.04 35.4054 106.848 36.1947 106.848 36.92C106.848 37.304 106.933 37.6454 107.104 37.944C107.317 38.2427 107.637 38.392 108.064 38.392C108.747 38.392 109.643 38.072 110.752 37.432C111.904 36.7494 113.099 35.9387 114.336 35C115.573 34.0187 116.704 33.08 117.728 32.184C118.795 31.2454 119.584 30.52 120.096 30.008L122.144 27.832C122.4 27.576 122.677 27.448 122.976 27.448C123.232 27.448 123.36 27.5547 123.36 27.768C123.36 28.024 122.997 28.5574 122.272 29.368C121.547 30.136 120.672 31.0107 119.648 31.992C118.667 32.9307 117.749 33.8054 116.896 34.616C116.043 35.384 115.488 35.8747 115.232 36.088C114.336 36.856 113.312 37.624 112.16 38.392C111.008 39.1174 109.813 39.48 108.576 39.48ZM109.728 30.648C110.155 30.392 110.795 29.9867 111.648 29.432C112.544 28.8774 113.461 28.2587 114.4 27.576C115.339 26.8934 116.128 26.2107 116.768 25.528C117.451 24.8454 117.792 24.248 117.792 23.736C117.792 23.608 117.771 23.5014 117.728 23.416C117.685 23.3734 117.6 23.352 117.472 23.352C116.917 23.352 116.256 23.6507 115.488 24.248C114.72 24.8454 113.952 25.5707 113.184 26.424C112.416 27.2347 111.712 28.0454 111.072 28.856C110.475 29.624 110.027 30.2214 109.728 30.648ZM141.841 15.928C140.86 15.928 140.369 15.5654 140.369 14.84C140.369 14.328 140.647 13.7734 141.201 13.176C141.756 12.5787 142.567 12.152 143.633 11.896C144.273 11.7254 144.785 11.64 145.169 11.64C145.596 11.5974 146.001 11.512 146.385 11.384C146.215 12.1947 145.852 13.0694 145.297 14.008C144.785 14.9467 144.103 15.5227 143.249 15.736C142.823 15.864 142.353 15.928 141.841 15.928ZM131.601 41.4C130.919 41.4 130.279 41.1227 129.681 40.568C129.127 40.0134 128.785 39.416 128.657 38.776C128.785 37.9654 129.063 36.984 129.489 35.832C129.959 34.6374 130.492 33.4 131.089 32.12C131.687 30.84 132.284 29.6454 132.881 28.536C133.479 27.384 133.991 26.4667 134.417 25.784C133.607 26.5094 132.732 27.32 131.793 28.216C130.897 29.112 130.044 29.944 129.233 30.712C129.191 30.7547 129.084 30.84 128.913 30.968C128.785 31.096 128.657 31.16 128.529 31.16C128.231 31.16 128.081 31.032 128.081 30.776C128.081 30.5627 128.167 30.3707 128.337 30.2C129.489 28.92 130.684 27.64 131.921 26.36C133.201 25.08 134.439 23.7574 135.633 22.392C136.017 21.9227 136.337 21.56 136.593 21.304C136.892 21.0054 137.34 20.856 137.937 20.856C138.193 20.856 138.577 20.92 139.089 21.048C139.644 21.1334 140.092 21.304 140.433 21.56C140.817 21.816 140.881 22.136 140.625 22.52C140.327 22.9894 139.815 23.7574 139.089 24.824C138.364 25.8907 137.532 27.1067 136.593 28.472C135.697 29.8374 134.801 31.224 133.905 32.632C133.052 33.9974 132.348 35.2347 131.793 36.344C131.239 37.4534 130.961 38.2854 130.961 38.84C130.961 39.096 131.047 39.224 131.217 39.224C131.473 39.224 131.9 38.9894 132.497 38.52C133.137 38.0507 133.756 37.56 134.353 37.048C134.993 36.4934 135.42 36.1307 135.633 35.96C136.871 34.8934 138.087 33.8054 139.281 32.696C140.476 31.544 141.607 30.3494 142.673 29.112C142.759 29.0267 142.865 28.8987 142.993 28.728C143.164 28.5574 143.335 28.472 143.505 28.472C143.719 28.472 143.825 28.6 143.825 28.856C143.825 29.1547 143.719 29.4534 143.505 29.752C142.951 30.4347 142.332 31.1174 141.649 31.8C140.967 32.44 140.327 33.08 139.729 33.72C138.62 34.8294 137.532 35.9387 136.465 37.048C135.441 38.1147 134.417 39.224 133.393 40.376C133.18 40.632 132.903 40.8667 132.561 41.08C132.263 41.2934 131.943 41.4 131.601 41.4ZM114.474 88.504C113.621 88.504 112.725 88.1414 111.786 87.416C110.847 86.6907 110.378 85.8587 110.378 84.92C110.378 84.0667 110.591 83.064 111.018 81.912C111.445 80.76 111.935 79.7147 112.49 78.776C111.167 80.184 109.823 81.592 108.458 83C107.135 84.408 105.834 85.8374 104.554 87.288C104.127 87.8 103.615 88.056 103.018 88.056C102.207 88.056 101.439 87.6294 100.714 86.776C100.031 85.9227 99.69 85.112 99.69 84.344C99.69 84.1307 99.7113 83.96 99.754 83.832C100.053 83.0214 100.394 82.232 100.778 81.464C101.205 80.6534 101.631 79.8854 102.058 79.16C102.527 78.3494 103.018 77.5814 103.53 76.856C104.085 76.088 104.639 75.32 105.194 74.552C105.407 74.296 105.599 74.04 105.77 73.784C105.983 73.4854 106.175 73.1867 106.346 72.888C106.474 72.6747 106.538 72.4187 106.538 72.12C106.538 71.8214 106.517 71.5654 106.474 71.352C106.901 70.7974 107.477 70.264 108.202 69.752C108.927 69.1974 109.631 68.92 110.314 68.92C110.485 68.92 110.762 68.984 111.146 69.112C111.573 69.1974 111.957 69.3254 112.298 69.496C112.682 69.624 112.874 69.7734 112.874 69.944C112.874 70.1147 112.789 70.2854 112.618 70.456C112.405 70.6694 112.17 70.8827 111.914 71.096C111.658 71.3094 111.423 71.544 111.21 71.8C110.229 72.7814 109.29 73.8267 108.394 74.936C107.498 76.0027 106.645 77.0907 105.834 78.2C105.578 78.584 105.173 79.16 104.618 79.928C104.106 80.6534 103.637 81.4 103.21 82.168C102.783 82.936 102.57 83.5547 102.57 84.024C102.57 84.4507 102.762 84.664 103.146 84.664C103.573 84.664 104.191 84.3867 105.002 83.832C105.855 83.2347 106.773 82.488 107.754 81.592C108.735 80.6534 109.695 79.6934 110.634 78.712C111.615 77.7307 112.469 76.8347 113.194 76.024C113.962 75.2134 114.495 74.616 114.794 74.232C115.69 73.1654 116.565 71.9707 117.418 70.648C117.759 70.136 118.165 69.688 118.634 69.304C119.146 68.8774 119.701 68.664 120.298 68.664C120.639 68.664 121.066 68.7067 121.578 68.792C122.133 68.8347 122.41 69.0907 122.41 69.56C122.41 69.7307 122.346 69.9014 122.218 70.072C122.133 70.2427 122.026 70.392 121.898 70.52C120.49 71.9707 119.146 73.5067 117.866 75.128C116.629 76.7067 115.583 78.4347 114.73 80.312C114.431 80.952 114.133 81.8054 113.834 82.872C113.535 83.896 113.386 84.7707 113.386 85.496C113.386 86.2214 113.663 86.584 114.218 86.584C114.602 86.584 114.986 86.456 115.37 86.2C115.839 85.944 116.479 85.432 117.29 84.664C118.101 83.8534 118.954 82.9574 119.85 81.976C120.789 80.952 121.663 79.992 122.474 79.096C123.285 78.1574 123.903 77.432 124.33 76.92C124.415 76.8347 124.501 76.7707 124.586 76.728C124.671 76.6427 124.757 76.6 124.842 76.6C125.141 76.6 125.29 76.7707 125.29 77.112C125.29 77.2827 125.247 77.4107 125.162 77.496C125.077 77.5814 124.991 77.688 124.906 77.816C123.583 79.352 122.261 80.9094 120.938 82.488C119.658 84.0667 118.357 85.624 117.034 87.16C116.735 87.544 116.373 87.864 115.946 88.12C115.519 88.376 115.029 88.504 114.474 88.504ZM139.596 90.744C139.084 90.744 138.551 90.616 137.996 90.36C137.484 90.1467 136.972 89.848 136.46 89.464C135.906 88.9947 135.372 88.3334 134.86 87.48C134.348 86.6267 133.922 85.7307 133.58 84.792L128.652 90.168C128.524 90.296 128.439 90.36 128.396 90.36C128.226 90.36 128.14 90.232 128.14 89.976C128.14 89.592 128.268 89.272 128.524 89.016L133.26 83.64C133.132 83.128 133.068 82.6374 133.068 82.168C132.77 81.9547 132.364 81.6987 131.852 81.4C131.383 81.0587 131.148 80.504 131.148 79.736C131.148 78.84 131.426 77.9654 131.98 77.112C132.535 76.2587 133.004 75.832 133.388 75.832C133.687 75.832 133.836 76.088 133.836 76.6C133.836 76.7707 133.836 77.2187 133.836 77.944C133.879 78.6694 133.922 79.416 133.964 80.184C134.007 80.9094 134.05 81.4 134.092 81.656C134.348 81.8267 134.562 81.9334 134.732 81.976C136.396 80.056 138.146 78.072 139.98 76.024C141.815 73.976 143.458 72.2267 144.908 70.776C145.634 69.6667 146.423 68.728 147.276 67.96C148.172 67.192 149.196 66.808 150.348 66.808C151.159 66.808 151.735 66.9574 152.076 67.256C152.418 67.5547 152.588 67.896 152.588 68.28C152.588 68.664 152.418 69.0267 152.076 69.368C151.778 69.6667 151.33 69.816 150.732 69.816C149.794 69.7734 148.983 69.816 148.3 69.944C147.618 70.0294 147.127 70.328 146.828 70.84C146.53 71.3947 146.188 72.312 145.804 73.592C145.42 74.872 145.036 76.3227 144.652 77.944C144.311 79.5654 144.012 81.144 143.756 82.68C144.652 82.5094 145.506 82.296 146.316 82.04C147.17 81.7414 148.087 81.2507 149.068 80.568C150.05 79.8854 151.18 78.8827 152.46 77.56C152.674 77.304 152.887 77.176 153.1 77.176C153.228 77.176 153.292 77.2614 153.292 77.432C153.292 77.5174 153.25 77.6667 153.164 77.88C153.079 78.0934 152.908 78.3707 152.652 78.712C152.14 79.3947 151.5 80.0774 150.732 80.76C150.007 81.4 149.367 81.8907 148.812 82.232C147.66 82.9147 146.572 83.3414 145.548 83.512C144.524 83.64 143.863 83.7254 143.564 83.768C143.394 84.664 143.244 85.4107 143.116 86.008C142.988 86.5627 142.903 86.968 142.86 87.224C142.647 88.4614 142.22 89.3574 141.58 89.912C140.983 90.4667 140.322 90.744 139.596 90.744ZM141.068 82.68C141.282 81.6987 141.559 80.3974 141.9 78.776C142.284 77.1547 142.796 75.5334 143.436 73.912C142.327 75.1494 141.09 76.4934 139.724 77.944C138.402 79.3947 137.1 80.8454 135.82 82.296C136.631 82.4667 137.506 82.5947 138.444 82.68C139.383 82.7227 140.258 82.7227 141.068 82.68ZM138.636 87.672C138.978 87.672 139.319 87.4374 139.66 86.968C140.044 86.456 140.407 85.5174 140.748 84.152C140.748 84.024 140.77 83.9387 140.812 83.896C139.788 83.8534 138.786 83.7894 137.804 83.704C136.866 83.576 135.97 83.3627 135.116 83.064L134.604 83.64C134.946 84.3227 135.351 85.0267 135.82 85.752C136.29 86.4347 136.823 86.9254 137.42 87.224C137.634 87.352 137.847 87.4587 138.06 87.544C138.274 87.6294 138.466 87.672 138.636 87.672ZM171.171 88.632C170.787 88.632 170.339 88.4614 169.827 88.12C169.358 87.7787 168.953 87.3947 168.611 86.968C168.27 86.4987 168.099 86.072 168.099 85.688C168.099 85.048 168.334 84.1947 168.803 83.128C169.273 82.0187 169.806 80.9307 170.403 79.864C171.043 78.7974 171.534 78.008 171.875 77.496C171.278 78.008 170.51 78.84 169.571 79.992C168.675 81.1014 167.694 82.296 166.627 83.576C165.603 84.8134 164.601 85.88 163.619 86.776C162.681 87.672 161.87 88.12 161.187 88.12C160.249 88.12 159.481 87.8 158.883 87.16C158.329 86.4774 158.051 85.6667 158.051 84.728C158.051 83.448 158.414 82.0827 159.139 80.632C159.865 79.1387 160.803 77.7094 161.955 76.344C163.15 74.936 164.43 73.656 165.795 72.504C167.203 71.352 168.569 70.4347 169.891 69.752C171.257 69.0694 172.473 68.728 173.539 68.728C174.691 68.728 175.63 69.0054 176.355 69.56C177.081 70.072 177.443 70.8614 177.443 71.928C177.443 72.0987 177.401 72.4187 177.315 72.888C177.273 73.3574 177.123 73.592 176.867 73.592C176.739 73.592 176.526 73.4 176.227 73.016C175.971 72.632 175.609 72.248 175.139 71.864C174.67 71.48 174.073 71.288 173.347 71.288C172.153 71.288 170.894 71.736 169.571 72.632C168.291 73.4854 167.054 74.5947 165.859 75.96C164.665 77.2827 163.619 78.648 162.723 80.056C161.827 81.464 161.145 82.68 160.675 83.704C160.547 84.0027 160.419 84.3227 160.291 84.664C160.206 85.0054 160.163 85.3467 160.163 85.688C160.163 86.072 160.27 86.264 160.483 86.264C160.697 86.264 161.145 86.0294 161.827 85.56C162.553 85.0907 163.065 84.7494 163.363 84.536C164.857 83.4694 166.265 82.2534 167.587 80.888C168.953 79.5227 170.169 78.1147 171.235 76.664C171.577 76.1947 171.897 75.7254 172.195 75.256C172.494 74.7867 172.793 74.3387 173.091 73.912C173.305 73.6134 173.518 73.464 173.731 73.464C174.201 73.464 174.649 73.784 175.075 74.424C175.545 75.064 175.779 75.6187 175.779 76.088C175.779 76.3014 175.737 76.4294 175.651 76.472C175.609 76.5147 175.481 76.6427 175.267 76.856C174.627 77.496 173.987 78.392 173.347 79.544C172.75 80.696 172.217 81.8694 171.747 83.064C171.321 84.216 171.001 85.1974 170.787 86.008C170.745 86.136 170.702 86.3067 170.659 86.52C170.659 86.6907 170.766 86.7547 170.979 86.712C171.406 86.584 172.089 86.1147 173.027 85.304C174.009 84.4507 175.054 83.4907 176.163 82.424C177.315 81.3147 178.339 80.2907 179.235 79.352C180.174 78.4134 180.793 77.752 181.091 77.368C181.177 77.2827 181.262 77.1974 181.347 77.112C181.475 76.984 181.603 76.92 181.731 76.92C182.03 76.92 182.179 77.0694 182.179 77.368C182.179 77.5387 181.838 78.0507 181.155 78.904C180.473 79.7147 179.619 80.6747 178.595 81.784C177.571 82.8507 176.526 83.9174 175.459 84.984C174.393 86.008 173.454 86.8827 172.643 87.608C171.875 88.2907 171.385 88.632 171.171 88.632ZM212.992 88.824C212.523 88.824 211.968 88.632 211.328 88.248C210.688 87.9067 210.112 87.48 209.6 86.968C209.131 86.4134 208.896 85.8587 208.896 85.304C208.896 84.5787 209.195 83.6614 209.792 82.552C210.39 81.4427 211.115 80.2907 211.968 79.096C212.864 77.9014 213.718 76.792 214.528 75.768C215.382 74.7014 216.064 73.848 216.576 73.208C217.174 72.44 217.451 72.0134 217.408 71.928C217.366 71.8 217.344 71.672 217.344 71.544C216.15 72.1414 214.806 73.0374 213.312 74.232C211.819 75.384 210.39 76.6 209.024 77.88C207.659 79.16 206.55 80.312 205.696 81.336C205.099 82.0187 204.523 82.744 203.968 83.512C203.456 84.2374 202.944 84.984 202.432 85.752C202.134 86.1787 201.75 86.6267 201.28 87.096C200.854 87.5654 200.363 87.8 199.808 87.8C199.51 87.8 199.232 87.6934 198.976 87.48C198.763 87.2667 198.656 87.0107 198.656 86.712C198.656 86.1147 199.04 85.2187 199.808 84.024C200.619 82.7867 201.451 81.4427 202.304 79.992C202.859 79.0534 203.456 78.0934 204.096 77.112C204.779 76.088 205.355 75.1707 205.824 74.36C206.336 73.5494 206.592 72.9947 206.592 72.696H206.528C206.4 72.696 206.102 72.8027 205.632 73.016C205.206 73.2294 204.971 73.3574 204.928 73.4C202.838 74.808 200.832 76.5574 198.912 78.648C197.035 80.7387 195.307 82.7227 193.728 84.6C193.43 84.984 193.11 85.3894 192.768 85.816C192.427 86.2 192.086 86.584 191.744 86.968C191.574 87.1387 191.339 87.288 191.04 87.416C190.742 87.5014 190.464 87.544 190.208 87.544C189.952 87.544 189.59 87.4587 189.12 87.288C188.694 87.1174 188.48 86.8187 188.48 86.392C188.48 85.88 188.715 85.1334 189.184 84.152C189.654 83.1707 190.23 82.0614 190.912 80.824C191.638 79.5867 192.384 78.3707 193.152 77.176C193.963 75.9387 194.688 74.8294 195.328 73.848C196.011 72.824 196.502 72.0774 196.8 71.608C195.478 72.76 194.283 73.8267 193.216 74.808C192.192 75.7467 191.019 77.0267 189.696 78.648C189.611 78.7334 189.44 78.904 189.184 79.16C188.928 79.416 188.672 79.5654 188.416 79.608C188.331 79.608 188.224 79.544 188.096 79.416C188.011 79.288 187.99 79.1814 188.032 79.096C188.075 78.8827 188.374 78.456 188.928 77.816C189.483 77.1334 190.166 76.3654 190.976 75.512C191.787 74.6587 192.598 73.8054 193.408 72.952C194.219 72.0987 194.923 71.352 195.52 70.712C196.16 70.072 196.544 69.6667 196.672 69.496C197.611 68.5147 198.443 67.7254 199.168 67.128C199.936 66.5307 200.662 66.232 201.344 66.232C201.728 66.232 202.176 66.4027 202.688 66.744C203.2 67.0854 203.456 67.4907 203.456 67.96C203.456 68.1307 203.414 68.2374 203.328 68.28C201.408 69.8587 199.702 71.672 198.208 73.72C196.715 75.7254 195.307 77.7307 193.984 79.736C193.942 79.7787 193.792 80.0134 193.536 80.44C193.323 80.8667 193.067 81.336 192.768 81.848C192.47 82.36 192.214 82.808 192 83.192C191.787 83.576 191.702 83.7467 191.744 83.704C194.006 81.5707 196.374 79.3094 198.848 76.92C201.366 74.488 203.798 72.2907 206.144 70.328C206.486 70.0294 206.87 69.7734 207.296 69.56C207.723 69.3467 208.171 69.24 208.64 69.24C209.152 69.24 209.558 69.4107 209.856 69.752C210.198 70.0507 210.368 70.456 210.368 70.968C210.368 71.5227 210.198 72.0774 209.856 72.632C209.515 73.1867 209.195 73.6987 208.896 74.168C208.47 74.936 208 75.704 207.488 76.472C207.019 77.24 206.678 77.8587 206.464 78.328C208.427 76.5787 210.304 74.8934 212.096 73.272C213.888 71.608 215.702 70.1787 217.536 68.984C217.963 68.6854 218.475 68.536 219.072 68.536C219.456 68.536 219.947 68.6 220.544 68.728C221.184 68.856 221.739 69.048 222.208 69.304C222.72 69.56 222.976 69.9227 222.976 70.392C222.976 70.648 222.891 70.904 222.72 71.16C222.55 71.3734 222.358 71.5654 222.144 71.736L219.136 74.296C218.582 74.808 217.899 75.5334 217.088 76.472C216.32 77.368 215.552 78.3707 214.784 79.48C214.059 80.5467 213.44 81.656 212.928 82.808C212.459 83.96 212.224 85.0267 212.224 86.008C212.224 86.6054 212.374 86.904 212.672 86.904C212.843 86.904 213.035 86.8614 213.248 86.776C213.462 86.648 213.696 86.52 213.952 86.392C214.848 85.88 215.808 85.1334 216.832 84.152C217.856 83.1707 218.859 82.1254 219.84 81.016C220.864 79.9067 221.76 78.9254 222.528 78.072C223.296 77.2187 223.872 76.6854 224.256 76.472C224.342 76.3867 224.448 76.3654 224.576 76.408C224.747 76.4507 224.832 76.536 224.832 76.664C224.832 76.8347 224.747 77.0267 224.576 77.24C224.406 77.4534 224.278 77.624 224.192 77.752C223.467 78.6054 222.784 79.4374 222.144 80.248C221.547 81.016 220.864 81.8267 220.096 82.68C219.2 83.704 218.198 84.792 217.088 85.944C216.022 87.0534 214.891 87.9494 213.696 88.632C213.526 88.76 213.291 88.824 212.992 88.824ZM244.309 63.928C243.328 63.928 242.837 63.5654 242.837 62.84C242.837 62.328 243.114 61.7734 243.669 61.176C244.224 60.5787 245.034 60.152 246.101 59.896C246.741 59.7254 247.253 59.64 247.637 59.64C248.064 59.5974 248.469 59.512 248.853 59.384C248.682 60.1947 248.32 61.0694 247.765 62.008C247.253 62.9467 246.57 63.5227 245.717 63.736C245.29 63.864 244.821 63.928 244.309 63.928ZM234.069 89.4C233.386 89.4 232.746 89.1227 232.149 88.568C231.594 88.0134 231.253 87.416 231.125 86.776C231.253 85.9654 231.53 84.984 231.957 83.832C232.426 82.6374 232.96 81.4 233.557 80.12C234.154 78.84 234.752 77.6454 235.349 76.536C235.946 75.384 236.458 74.4667 236.885 73.784C236.074 74.5094 235.2 75.32 234.261 76.216C233.365 77.112 232.512 77.944 231.701 78.712C231.658 78.7547 231.552 78.84 231.381 78.968C231.253 79.096 231.125 79.16 230.997 79.16C230.698 79.16 230.549 79.032 230.549 78.776C230.549 78.5627 230.634 78.3707 230.805 78.2C231.957 76.92 233.152 75.64 234.389 74.36C235.669 73.08 236.906 71.7574 238.101 70.392C238.485 69.9227 238.805 69.56 239.061 69.304C239.36 69.0054 239.808 68.856 240.405 68.856C240.661 68.856 241.045 68.92 241.557 69.048C242.112 69.1334 242.56 69.304 242.901 69.56C243.285 69.816 243.349 70.136 243.093 70.52C242.794 70.9894 242.282 71.7574 241.557 72.824C240.832 73.8907 240 75.1067 239.061 76.472C238.165 77.8374 237.269 79.224 236.373 80.632C235.52 81.9974 234.816 83.2347 234.261 84.344C233.706 85.4534 233.429 86.2854 233.429 86.84C233.429 87.096 233.514 87.224 233.685 87.224C233.941 87.224 234.368 86.9894 234.965 86.52C235.605 86.0507 236.224 85.56 236.821 85.048C237.461 84.4934 237.888 84.1307 238.101 83.96C239.338 82.8934 240.554 81.8054 241.749 80.696C242.944 79.544 244.074 78.3494 245.141 77.112C245.226 77.0267 245.333 76.8987 245.461 76.728C245.632 76.5574 245.802 76.472 245.973 76.472C246.186 76.472 246.293 76.6 246.293 76.856C246.293 77.1547 246.186 77.4534 245.973 77.752C245.418 78.4347 244.8 79.1174 244.117 79.8C243.434 80.44 242.794 81.08 242.197 81.72C241.088 82.8294 240 83.9387 238.933 85.048C237.909 86.1147 236.885 87.224 235.861 88.376C235.648 88.632 235.37 88.8667 235.029 89.08C234.73 89.2934 234.41 89.4 234.069 89.4Z" fill="#333333"/>
<path d="M7.94399 64.568C5.98133 64.568 4.99999 63.5867 4.99999 61.624C4.99999 61.4107 5.02133 61.1974 5.06399 60.984C5.06399 60.7707 5.08533 60.5574 5.12799 60.344C5.46933 58.808 6.19466 57.336 7.30399 55.928C8.41333 54.52 9.71466 53.1974 11.208 51.96C12.7013 50.7654 14.216 49.6347 15.752 48.568C17.3307 47.544 18.7387 46.648 19.976 45.88C20.7013 45.4107 21.6187 44.8347 22.728 44.152C23.88 43.4694 25.096 42.7227 26.376 41.912C27.656 41.144 28.872 40.4187 30.024 39.736C30.4933 38.5414 30.8133 37.2187 30.984 35.768C31.1973 34.2747 31.304 32.888 31.304 31.608V31.096C30.792 31.864 30.0453 32.76 29.064 33.784C28.0827 34.808 26.9733 35.8107 25.736 36.792C24.4987 37.7307 23.2827 38.52 22.088 39.16C20.8933 39.8 19.8053 40.12 18.824 40.12C18.1413 40.12 17.672 39.9067 17.416 39.48C17.2027 39.0534 17.096 38.5627 17.096 38.008C17.096 36.5147 17.416 34.9787 18.056 33.4C18.696 31.8214 19.4213 30.3707 20.232 29.048C21.0427 27.6827 21.768 26.552 22.408 25.656C23.048 24.7174 23.368 24.184 23.368 24.056C23.368 24.0134 23.3253 23.992 23.24 23.992C23.0693 23.992 22.8773 23.992 22.664 23.992C22.4933 23.992 22.472 23.864 22.6 23.608C23.1973 22.8827 23.944 22.2427 24.84 21.688C25.736 21.1334 26.5893 20.856 27.4 20.856C27.6987 20.856 28.04 20.984 28.424 21.24C28.8507 21.4534 29.064 21.7307 29.064 22.072C29.064 22.2854 28.936 22.52 28.68 22.776C28.3813 23.0747 28.0187 23.416 27.592 23.8C27.208 24.184 26.6747 24.7814 25.992 25.592C25.608 26.0187 25.0747 26.7227 24.392 27.704C23.7093 28.6427 23.0053 29.7307 22.28 30.968C21.5547 32.1627 20.936 33.3574 20.424 34.552C19.9547 35.704 19.72 36.7067 19.72 37.56C19.72 37.688 19.72 37.8374 19.72 38.008C19.7627 38.136 19.8693 38.264 20.04 38.392C20.6373 38.4347 21.384 38.1787 22.28 37.624C23.176 37.0267 24.1147 36.28 25.096 35.384C26.12 34.4454 27.08 33.464 27.976 32.44C28.9147 31.3734 29.7253 30.392 30.408 29.496C31.1333 28.5574 31.6453 27.8107 31.944 27.256C32.4133 26.4027 33.1173 25.976 34.056 25.976C34.7387 25.976 35.1227 26.1254 35.208 26.424C35.336 26.7227 35.4 27.128 35.4 27.64C35.4 29.304 35.2933 30.776 35.08 32.056C34.9093 33.2934 34.568 34.7014 34.056 36.28C36.7867 33.9334 39.3893 31.4587 41.864 28.856C41.9067 28.7707 41.992 28.664 42.12 28.536C42.2907 28.408 42.4187 28.344 42.504 28.344C42.76 28.344 42.888 28.472 42.888 28.728C42.888 29.0694 42.76 29.4107 42.504 29.752C42.12 30.2214 41.6933 30.6907 41.224 31.16C40.7973 31.6294 40.3707 32.0987 39.944 32.568C38.92 33.6774 37.8747 34.7867 36.808 35.896C35.7413 36.9627 34.6107 37.9867 33.416 38.968C31.4533 44.1307 28.872 48.6534 25.672 52.536C22.5147 56.4614 18.5253 59.8107 13.704 62.584C12.8933 63.0534 11.976 63.5014 10.952 63.928C9.92799 64.3547 8.92533 64.568 7.94399 64.568ZM9.41599 62.968C10.568 62.968 11.8267 62.5414 13.192 61.688C14.5147 60.8774 15.8373 59.8534 17.16 58.616C18.4827 57.3787 19.6773 56.1414 20.744 54.904C21.8533 53.7094 22.728 52.7067 23.368 51.896C24.0933 50.9147 24.7973 49.9334 25.48 48.952C26.1627 48.0134 26.8027 47.032 27.4 46.008C28.296 44.5147 29.0427 43.064 29.64 41.656C29.6827 41.528 29.64 41.4427 29.512 41.4C29.4267 41.4 29.384 41.4 29.384 41.4C28.0613 42.3387 26.7173 43.256 25.352 44.152C24.0293 45.0907 22.6853 46.008 21.32 46.904C20.6373 47.3307 19.72 47.9494 18.568 48.76C17.416 49.6134 16.1787 50.552 14.856 51.576C13.5333 52.6427 12.2747 53.7307 11.08 54.84C9.88533 55.992 8.90399 57.1014 8.13599 58.168C7.36799 59.2774 6.98399 60.2587 6.98399 61.112C6.98399 61.7947 7.26133 62.264 7.81599 62.52C8.32799 62.8187 8.86133 62.968 9.41599 62.968ZM51.3065 40.76C50.0692 40.76 49.1518 40.2694 48.5545 39.288C47.9572 38.264 47.6585 37.2187 47.6585 36.152C47.6585 34.7014 48.0425 33.144 48.8105 31.48C49.5785 29.7734 50.4958 28.152 51.5625 26.616C52.6718 25.08 53.6532 23.8214 54.5065 22.84C54.7198 22.584 54.9972 22.456 55.3385 22.456C55.7225 22.456 56.1065 22.6054 56.4905 22.904C57.3865 22.264 58.4105 21.688 59.5625 21.176C60.7572 20.664 61.9092 20.408 63.0185 20.408C64.9385 20.408 65.8985 21.3894 65.8985 23.352C65.8985 25.2294 65.4292 26.9574 64.4905 28.536C63.5945 30.1147 62.5918 31.6507 61.4825 33.144C61.1838 33.528 60.8852 33.8907 60.5865 34.232C60.3305 34.5734 60.0318 34.9147 59.6905 35.256C61.5678 34.744 63.2105 33.8907 64.6185 32.696C66.0265 31.5014 67.4132 30.264 68.7785 28.984C68.9492 28.8134 69.0985 28.6854 69.2265 28.6C69.3972 28.472 69.6105 28.408 69.8665 28.408C70.0798 28.408 70.1865 28.5574 70.1865 28.856C70.1865 28.8987 70.1225 29.0054 69.9945 29.176C69.8665 29.3467 69.7812 29.4747 69.7385 29.56C68.3305 31.2667 66.5812 32.8667 64.4905 34.36C62.4425 35.8107 60.2878 36.7067 58.0265 37.048C57.2158 37.8587 56.1918 38.6907 54.9545 39.544C53.7172 40.3547 52.5012 40.76 51.3065 40.76ZM56.2985 35.704C56.4692 35.704 56.6185 35.704 56.7465 35.704C56.9172 35.704 57.0878 35.6827 57.2585 35.64C58.1118 34.616 58.9865 33.4 59.8825 31.992C60.8212 30.584 61.6105 29.1334 62.2505 27.64C62.8905 26.104 63.2105 24.7174 63.2105 23.48C63.2105 22.712 62.8478 22.328 62.1225 22.328C61.3972 22.328 60.5652 22.5414 59.6265 22.968C58.6878 23.3947 57.8985 23.8427 57.2585 24.312V24.504C57.2585 24.9307 56.9172 25.5494 56.2345 26.36C55.5945 27.128 54.8905 27.9174 54.1225 28.728C53.3972 29.5387 52.8638 30.2214 52.5225 30.776C52.3945 32.184 52.6718 33.3574 53.3545 34.296C54.0372 35.2347 55.0185 35.704 56.2985 35.704ZM51.3705 39.672C52.1812 39.672 52.9705 39.3734 53.7385 38.776C54.5492 38.1787 55.2318 37.624 55.7865 37.112C54.7625 37.0267 53.8238 36.6854 52.9705 36.088C52.1598 35.448 51.4132 34.744 50.7305 33.976C50.6025 34.232 50.4318 34.7227 50.2185 35.448C50.0052 36.1734 49.8985 36.8987 49.8985 37.624C49.8985 38.1787 50.0052 38.6694 50.2185 39.096C50.4318 39.48 50.8158 39.672 51.3705 39.672ZM86.1845 40.76C85.5445 40.76 84.7978 40.5467 83.9445 40.12C83.0912 39.6934 82.6645 39.1174 82.6645 38.392C82.6645 37.752 82.8992 36.9414 83.3685 35.96C83.8378 34.9787 84.4138 33.9334 85.0965 32.824C85.7792 31.7147 86.4832 30.648 87.2085 29.624C87.9338 28.5574 88.5525 27.6614 89.0645 26.936C89.6192 26.168 89.9605 25.656 90.0885 25.4C90.6858 24.5894 91.0485 24.0774 91.1765 23.864C91.3045 23.6507 91.3898 23.48 91.4325 23.352C91.0912 23.608 90.5578 24.0134 89.8325 24.568C89.1072 25.08 88.3818 25.6134 87.6565 26.168C86.9312 26.7227 86.3978 27.1494 86.0565 27.448C83.6672 29.5387 81.6618 31.544 80.0405 33.464C78.4618 35.3414 76.9898 37.3467 75.6245 39.48C75.5818 39.5227 75.4752 39.5654 75.3045 39.608C75.1338 39.608 75.0058 39.608 74.9205 39.608C74.6645 39.608 74.2805 39.544 73.7685 39.416C73.2992 39.288 73.1072 39.0107 73.1925 38.584C73.4485 37.944 73.7898 37.2614 74.2165 36.536C74.6432 35.8107 75.2405 34.8294 76.0085 33.592C76.7765 32.312 77.7792 30.52 79.0165 28.216C79.4005 27.4907 80.0405 26.296 80.9365 24.632C81.8752 22.968 83.0058 21.0694 84.3285 18.936C85.6938 16.8027 87.2085 14.6907 88.8725 12.6C90.5792 10.4667 92.4138 8.56803 94.3765 6.90403C96.3392 5.24003 98.3872 4.04536 100.52 3.32003C101.075 3.10669 101.566 3.00003 101.992 3.00003C102.803 3.00003 103.358 3.27736 103.656 3.83203C103.998 4.34403 104.446 4.7707 105 5.11203C105.342 5.32536 105.512 5.6667 105.512 6.13603C105.512 6.8187 104.936 7.75736 103.784 8.95203C102.675 10.104 101.246 11.384 99.4965 12.792C97.7472 14.1574 95.9125 15.5227 93.9925 16.888C92.0725 18.2534 90.2592 19.512 88.5525 20.664C86.8885 21.816 85.6085 22.712 84.7125 23.352C84.5418 23.6934 84.2005 24.248 83.6885 25.016C83.2192 25.7414 82.7072 26.5307 82.1525 27.384C81.5978 28.2374 81.0858 29.0267 80.6165 29.752C80.1472 30.4774 79.8485 30.9894 79.7205 31.288C80.9152 30.1787 82.1738 29.0054 83.4965 27.768C84.8618 26.5307 86.1845 25.336 87.4645 24.184C88.7872 23.032 89.9392 22.0507 90.9205 21.24C91.1338 21.0694 91.3898 20.9627 91.6885 20.92C92.0298 20.8774 92.3072 20.856 92.5205 20.856C93.1178 20.856 93.8218 21.112 94.6325 21.624C95.4432 22.136 95.8485 22.7547 95.8485 23.48C95.8485 23.9494 95.5925 24.4187 95.0805 24.888C93.8005 26.04 92.4992 27.384 91.1765 28.92C89.8538 30.4134 88.6592 31.992 87.5925 33.656C87.2938 34.168 86.8672 34.9147 86.3125 35.896C85.8005 36.8774 85.5445 37.6667 85.5445 38.264C85.5445 38.6907 85.6725 38.904 85.9285 38.904C86.4405 38.904 87.1445 38.6267 88.0405 38.072C88.9792 37.5174 89.9818 36.8134 91.0485 35.96C92.1578 35.064 93.2458 34.1467 94.3125 33.208C95.4218 32.2694 96.4032 31.3947 97.2565 30.584C98.1098 29.7734 98.7285 29.1547 99.1125 28.728C99.3685 28.472 99.5818 28.344 99.7525 28.344C100.008 28.344 100.136 28.472 100.136 28.728C100.136 28.856 100.051 29.048 99.8805 29.304C99.3258 30.0294 98.5152 30.9467 97.4485 32.056C96.3818 33.1227 95.2085 34.232 93.9285 35.384C92.6485 36.4934 91.4112 37.5174 90.2165 38.456C89.0645 39.352 88.1045 40.0347 87.3365 40.504C87.0378 40.6747 86.6538 40.76 86.1845 40.76ZM86.0565 20.856C86.3978 20.6 86.9738 20.1947 87.7845 19.64C88.6378 19.0427 89.5765 18.3814 90.6005 17.656C91.6672 16.888 92.7125 16.1414 93.7365 15.416C94.7605 14.648 95.6138 13.9654 96.2965 13.368C97.6618 12.1734 98.7925 11.192 99.6885 10.424C100.627 9.65603 101.438 8.76003 102.12 7.73603C102.291 7.52269 102.398 7.33069 102.44 7.16003C102.483 6.98936 102.504 6.84003 102.504 6.71203C102.504 6.45603 102.376 6.26403 102.12 6.13603C101.907 6.00803 101.63 5.94403 101.288 5.94403C100.648 5.94403 99.8165 6.28536 98.7925 6.96803C97.7685 7.65069 96.6592 8.56803 95.4645 9.72003C94.2698 10.8294 93.0752 12.0454 91.8805 13.368C90.6858 14.6907 89.5765 16.0134 88.5525 17.336C87.5285 18.616 86.6965 19.7894 86.0565 20.856ZM108.576 39.48C106.016 39.48 104.736 38.2214 104.736 35.704C104.736 34.7227 104.992 33.592 105.504 32.312C106.059 30.9894 106.784 29.6667 107.68 28.344C108.576 27.0214 109.579 25.8054 110.688 24.696C111.797 23.544 112.928 22.6267 114.08 21.944C115.275 21.2187 116.384 20.856 117.408 20.856C117.749 20.856 117.984 20.9414 118.112 21.112C118.283 21.24 118.411 21.4747 118.496 21.816C118.581 21.9867 118.645 22.1787 118.688 22.392C118.731 22.6054 118.795 22.8187 118.88 23.032C119.051 23.3307 119.2 23.6294 119.328 23.928C119.456 24.2267 119.52 24.5467 119.52 24.888C119.52 25.3147 119.413 25.6987 119.2 26.04C118.987 26.3387 118.731 26.616 118.432 26.872C118.005 27.256 117.365 27.7467 116.512 28.344C115.659 28.8987 114.72 29.4747 113.696 30.072C112.715 30.6267 111.755 31.1174 110.816 31.544C109.92 31.9707 109.195 32.2267 108.64 32.312C108.256 32.9094 107.851 33.656 107.424 34.552C107.04 35.4054 106.848 36.1947 106.848 36.92C106.848 37.304 106.933 37.6454 107.104 37.944C107.317 38.2427 107.637 38.392 108.064 38.392C108.747 38.392 109.643 38.072 110.752 37.432C111.904 36.7494 113.099 35.9387 114.336 35C115.573 34.0187 116.704 33.08 117.728 32.184C118.795 31.2454 119.584 30.52 120.096 30.008L122.144 27.832C122.4 27.576 122.677 27.448 122.976 27.448C123.232 27.448 123.36 27.5547 123.36 27.768C123.36 28.024 122.997 28.5574 122.272 29.368C121.547 30.136 120.672 31.0107 119.648 31.992C118.667 32.9307 117.749 33.8054 116.896 34.616C116.043 35.384 115.488 35.8747 115.232 36.088C114.336 36.856 113.312 37.624 112.16 38.392C111.008 39.1174 109.813 39.48 108.576 39.48ZM109.728 30.648C110.155 30.392 110.795 29.9867 111.648 29.432C112.544 28.8774 113.461 28.2587 114.4 27.576C115.339 26.8934 116.128 26.2107 116.768 25.528C117.451 24.8454 117.792 24.248 117.792 23.736C117.792 23.608 117.771 23.5014 117.728 23.416C117.685 23.3734 117.6 23.352 117.472 23.352C116.917 23.352 116.256 23.6507 115.488 24.248C114.72 24.8454 113.952 25.5707 113.184 26.424C112.416 27.2347 111.712 28.0454 111.072 28.856C110.475 29.624 110.027 30.2214 109.728 30.648ZM141.841 15.928C140.86 15.928 140.369 15.5654 140.369 14.84C140.369 14.328 140.647 13.7734 141.201 13.176C141.756 12.5787 142.567 12.152 143.633 11.896C144.273 11.7254 144.785 11.64 145.169 11.64C145.596 11.5974 146.001 11.512 146.385 11.384C146.215 12.1947 145.852 13.0694 145.297 14.008C144.785 14.9467 144.103 15.5227 143.249 15.736C142.823 15.864 142.353 15.928 141.841 15.928ZM131.601 41.4C130.919 41.4 130.279 41.1227 129.681 40.568C129.127 40.0134 128.785 39.416 128.657 38.776C128.785 37.9654 129.063 36.984 129.489 35.832C129.959 34.6374 130.492 33.4 131.089 32.12C131.687 30.84 132.284 29.6454 132.881 28.536C133.479 27.384 133.991 26.4667 134.417 25.784C133.607 26.5094 132.732 27.32 131.793 28.216C130.897 29.112 130.044 29.944 129.233 30.712C129.191 30.7547 129.084 30.84 128.913 30.968C128.785 31.096 128.657 31.16 128.529 31.16C128.231 31.16 128.081 31.032 128.081 30.776C128.081 30.5627 128.167 30.3707 128.337 30.2C129.489 28.92 130.684 27.64 131.921 26.36C133.201 25.08 134.439 23.7574 135.633 22.392C136.017 21.9227 136.337 21.56 136.593 21.304C136.892 21.0054 137.34 20.856 137.937 20.856C138.193 20.856 138.577 20.92 139.089 21.048C139.644 21.1334 140.092 21.304 140.433 21.56C140.817 21.816 140.881 22.136 140.625 22.52C140.327 22.9894 139.815 23.7574 139.089 24.824C138.364 25.8907 137.532 27.1067 136.593 28.472C135.697 29.8374 134.801 31.224 133.905 32.632C133.052 33.9974 132.348 35.2347 131.793 36.344C131.239 37.4534 130.961 38.2854 130.961 38.84C130.961 39.096 131.047 39.224 131.217 39.224C131.473 39.224 131.9 38.9894 132.497 38.52C133.137 38.0507 133.756 37.56 134.353 37.048C134.993 36.4934 135.42 36.1307 135.633 35.96C136.871 34.8934 138.087 33.8054 139.281 32.696C140.476 31.544 141.607 30.3494 142.673 29.112C142.759 29.0267 142.865 28.8987 142.993 28.728C143.164 28.5574 143.335 28.472 143.505 28.472C143.719 28.472 143.825 28.6 143.825 28.856C143.825 29.1547 143.719 29.4534 143.505 29.752C142.951 30.4347 142.332 31.1174 141.649 31.8C140.967 32.44 140.327 33.08 139.729 33.72C138.62 34.8294 137.532 35.9387 136.465 37.048C135.441 38.1147 134.417 39.224 133.393 40.376C133.18 40.632 132.903 40.8667 132.561 41.08C132.263 41.2934 131.943 41.4 131.601 41.4ZM114.474 88.504C113.621 88.504 112.725 88.1414 111.786 87.416C110.847 86.6907 110.378 85.8587 110.378 84.92C110.378 84.0667 110.591 83.064 111.018 81.912C111.445 80.76 111.935 79.7147 112.49 78.776C111.167 80.184 109.823 81.592 108.458 83C107.135 84.408 105.834 85.8374 104.554 87.288C104.127 87.8 103.615 88.056 103.018 88.056C102.207 88.056 101.439 87.6294 100.714 86.776C100.031 85.9227 99.69 85.112 99.69 84.344C99.69 84.1307 99.7113 83.96 99.754 83.832C100.053 83.0214 100.394 82.232 100.778 81.464C101.205 80.6534 101.631 79.8854 102.058 79.16C102.527 78.3494 103.018 77.5814 103.53 76.856C104.085 76.088 104.639 75.32 105.194 74.552C105.407 74.296 105.599 74.04 105.77 73.784C105.983 73.4854 106.175 73.1867 106.346 72.888C106.474 72.6747 106.538 72.4187 106.538 72.12C106.538 71.8214 106.517 71.5654 106.474 71.352C106.901 70.7974 107.477 70.264 108.202 69.752C108.927 69.1974 109.631 68.92 110.314 68.92C110.485 68.92 110.762 68.984 111.146 69.112C111.573 69.1974 111.957 69.3254 112.298 69.496C112.682 69.624 112.874 69.7734 112.874 69.944C112.874 70.1147 112.789 70.2854 112.618 70.456C112.405 70.6694 112.17 70.8827 111.914 71.096C111.658 71.3094 111.423 71.544 111.21 71.8C110.229 72.7814 109.29 73.8267 108.394 74.936C107.498 76.0027 106.645 77.0907 105.834 78.2C105.578 78.584 105.173 79.16 104.618 79.928C104.106 80.6534 103.637 81.4 103.21 82.168C102.783 82.936 102.57 83.5547 102.57 84.024C102.57 84.4507 102.762 84.664 103.146 84.664C103.573 84.664 104.191 84.3867 105.002 83.832C105.855 83.2347 106.773 82.488 107.754 81.592C108.735 80.6534 109.695 79.6934 110.634 78.712C111.615 77.7307 112.469 76.8347 113.194 76.024C113.962 75.2134 114.495 74.616 114.794 74.232C115.69 73.1654 116.565 71.9707 117.418 70.648C117.759 70.136 118.165 69.688 118.634 69.304C119.146 68.8774 119.701 68.664 120.298 68.664C120.639 68.664 121.066 68.7067 121.578 68.792C122.133 68.8347 122.41 69.0907 122.41 69.56C122.41 69.7307 122.346 69.9014 122.218 70.072C122.133 70.2427 122.026 70.392 121.898 70.52C120.49 71.9707 119.146 73.5067 117.866 75.128C116.629 76.7067 115.583 78.4347 114.73 80.312C114.431 80.952 114.133 81.8054 113.834 82.872C113.535 83.896 113.386 84.7707 113.386 85.496C113.386 86.2214 113.663 86.584 114.218 86.584C114.602 86.584 114.986 86.456 115.37 86.2C115.839 85.944 116.479 85.432 117.29 84.664C118.101 83.8534 118.954 82.9574 119.85 81.976C120.789 80.952 121.663 79.992 122.474 79.096C123.285 78.1574 123.903 77.432 124.33 76.92C124.415 76.8347 124.501 76.7707 124.586 76.728C124.671 76.6427 124.757 76.6 124.842 76.6C125.141 76.6 125.29 76.7707 125.29 77.112C125.29 77.2827 125.247 77.4107 125.162 77.496C125.077 77.5814 124.991 77.688 124.906 77.816C123.583 79.352 122.261 80.9094 120.938 82.488C119.658 84.0667 118.357 85.624 117.034 87.16C116.735 87.544 116.373 87.864 115.946 88.12C115.519 88.376 115.029 88.504 114.474 88.504ZM139.596 90.744C139.084 90.744 138.551 90.616 137.996 90.36C137.484 90.1467 136.972 89.848 136.46 89.464C135.906 88.9947 135.372 88.3334 134.86 87.48C134.348 86.6267 133.922 85.7307 133.58 84.792L128.652 90.168C128.524 90.296 128.439 90.36 128.396 90.36C128.226 90.36 128.14 90.232 128.14 89.976C128.14 89.592 128.268 89.272 128.524 89.016L133.26 83.64C133.132 83.128 133.068 82.6374 133.068 82.168C132.77 81.9547 132.364 81.6987 131.852 81.4C131.383 81.0587 131.148 80.504 131.148 79.736C131.148 78.84 131.426 77.9654 131.98 77.112C132.535 76.2587 133.004 75.832 133.388 75.832C133.687 75.832 133.836 76.088 133.836 76.6C133.836 76.7707 133.836 77.2187 133.836 77.944C133.879 78.6694 133.922 79.416 133.964 80.184C134.007 80.9094 134.05 81.4 134.092 81.656C134.348 81.8267 134.562 81.9334 134.732 81.976C136.396 80.056 138.146 78.072 139.98 76.024C141.815 73.976 143.458 72.2267 144.908 70.776C145.634 69.6667 146.423 68.728 147.276 67.96C148.172 67.192 149.196 66.808 150.348 66.808C151.159 66.808 151.735 66.9574 152.076 67.256C152.418 67.5547 152.588 67.896 152.588 68.28C152.588 68.664 152.418 69.0267 152.076 69.368C151.778 69.6667 151.33 69.816 150.732 69.816C149.794 69.7734 148.983 69.816 148.3 69.944C147.618 70.0294 147.127 70.328 146.828 70.84C146.53 71.3947 146.188 72.312 145.804 73.592C145.42 74.872 145.036 76.3227 144.652 77.944C144.311 79.5654 144.012 81.144 143.756 82.68C144.652 82.5094 145.506 82.296 146.316 82.04C147.17 81.7414 148.087 81.2507 149.068 80.568C150.05 79.8854 151.18 78.8827 152.46 77.56C152.674 77.304 152.887 77.176 153.1 77.176C153.228 77.176 153.292 77.2614 153.292 77.432C153.292 77.5174 153.25 77.6667 153.164 77.88C153.079 78.0934 152.908 78.3707 152.652 78.712C152.14 79.3947 151.5 80.0774 150.732 80.76C150.007 81.4 149.367 81.8907 148.812 82.232C147.66 82.9147 146.572 83.3414 145.548 83.512C144.524 83.64 143.863 83.7254 143.564 83.768C143.394 84.664 143.244 85.4107 143.116 86.008C142.988 86.5627 142.903 86.968 142.86 87.224C142.647 88.4614 142.22 89.3574 141.58 89.912C140.983 90.4667 140.322 90.744 139.596 90.744ZM141.068 82.68C141.282 81.6987 141.559 80.3974 141.9 78.776C142.284 77.1547 142.796 75.5334 143.436 73.912C142.327 75.1494 141.09 76.4934 139.724 77.944C138.402 79.3947 137.1 80.8454 135.82 82.296C136.631 82.4667 137.506 82.5947 138.444 82.68C139.383 82.7227 140.258 82.7227 141.068 82.68ZM138.636 87.672C138.978 87.672 139.319 87.4374 139.66 86.968C140.044 86.456 140.407 85.5174 140.748 84.152C140.748 84.024 140.77 83.9387 140.812 83.896C139.788 83.8534 138.786 83.7894 137.804 83.704C136.866 83.576 135.97 83.3627 135.116 83.064L134.604 83.64C134.946 84.3227 135.351 85.0267 135.82 85.752C136.29 86.4347 136.823 86.9254 137.42 87.224C137.634 87.352 137.847 87.4587 138.06 87.544C138.274 87.6294 138.466 87.672 138.636 87.672ZM171.171 88.632C170.787 88.632 170.339 88.4614 169.827 88.12C169.358 87.7787 168.953 87.3947 168.611 86.968C168.27 86.4987 168.099 86.072 168.099 85.688C168.099 85.048 168.334 84.1947 168.803 83.128C169.273 82.0187 169.806 80.9307 170.403 79.864C171.043 78.7974 171.534 78.008 171.875 77.496C171.278 78.008 170.51 78.84 169.571 79.992C168.675 81.1014 167.694 82.296 166.627 83.576C165.603 84.8134 164.601 85.88 163.619 86.776C162.681 87.672 161.87 88.12 161.187 88.12C160.249 88.12 159.481 87.8 158.883 87.16C158.329 86.4774 158.051 85.6667 158.051 84.728C158.051 83.448 158.414 82.0827 159.139 80.632C159.865 79.1387 160.803 77.7094 161.955 76.344C163.15 74.936 164.43 73.656 165.795 72.504C167.203 71.352 168.569 70.4347 169.891 69.752C171.257 69.0694 172.473 68.728 173.539 68.728C174.691 68.728 175.63 69.0054 176.355 69.56C177.081 70.072 177.443 70.8614 177.443 71.928C177.443 72.0987 177.401 72.4187 177.315 72.888C177.273 73.3574 177.123 73.592 176.867 73.592C176.739 73.592 176.526 73.4 176.227 73.016C175.971 72.632 175.609 72.248 175.139 71.864C174.67 71.48 174.073 71.288 173.347 71.288C172.153 71.288 170.894 71.736 169.571 72.632C168.291 73.4854 167.054 74.5947 165.859 75.96C164.665 77.2827 163.619 78.648 162.723 80.056C161.827 81.464 161.145 82.68 160.675 83.704C160.547 84.0027 160.419 84.3227 160.291 84.664C160.206 85.0054 160.163 85.3467 160.163 85.688C160.163 86.072 160.27 86.264 160.483 86.264C160.697 86.264 161.145 86.0294 161.827 85.56C162.553 85.0907 163.065 84.7494 163.363 84.536C164.857 83.4694 166.265 82.2534 167.587 80.888C168.953 79.5227 170.169 78.1147 171.235 76.664C171.577 76.1947 171.897 75.7254 172.195 75.256C172.494 74.7867 172.793 74.3387 173.091 73.912C173.305 73.6134 173.518 73.464 173.731 73.464C174.201 73.464 174.649 73.784 175.075 74.424C175.545 75.064 175.779 75.6187 175.779 76.088C175.779 76.3014 175.737 76.4294 175.651 76.472C175.609 76.5147 175.481 76.6427 175.267 76.856C174.627 77.496 173.987 78.392 173.347 79.544C172.75 80.696 172.217 81.8694 171.747 83.064C171.321 84.216 171.001 85.1974 170.787 86.008C170.745 86.136 170.702 86.3067 170.659 86.52C170.659 86.6907 170.766 86.7547 170.979 86.712C171.406 86.584 172.089 86.1147 173.027 85.304C174.009 84.4507 175.054 83.4907 176.163 82.424C177.315 81.3147 178.339 80.2907 179.235 79.352C180.174 78.4134 180.793 77.752 181.091 77.368C181.177 77.2827 181.262 77.1974 181.347 77.112C181.475 76.984 181.603 76.92 181.731 76.92C182.03 76.92 182.179 77.0694 182.179 77.368C182.179 77.5387 181.838 78.0507 181.155 78.904C180.473 79.7147 179.619 80.6747 178.595 81.784C177.571 82.8507 176.526 83.9174 175.459 84.984C174.393 86.008 173.454 86.8827 172.643 87.608C171.875 88.2907 171.385 88.632 171.171 88.632ZM212.992 88.824C212.523 88.824 211.968 88.632 211.328 88.248C210.688 87.9067 210.112 87.48 209.6 86.968C209.131 86.4134 208.896 85.8587 208.896 85.304C208.896 84.5787 209.195 83.6614 209.792 82.552C210.39 81.4427 211.115 80.2907 211.968 79.096C212.864 77.9014 213.718 76.792 214.528 75.768C215.382 74.7014 216.064 73.848 216.576 73.208C217.174 72.44 217.451 72.0134 217.408 71.928C217.366 71.8 217.344 71.672 217.344 71.544C216.15 72.1414 214.806 73.0374 213.312 74.232C211.819 75.384 210.39 76.6 209.024 77.88C207.659 79.16 206.55 80.312 205.696 81.336C205.099 82.0187 204.523 82.744 203.968 83.512C203.456 84.2374 202.944 84.984 202.432 85.752C202.134 86.1787 201.75 86.6267 201.28 87.096C200.854 87.5654 200.363 87.8 199.808 87.8C199.51 87.8 199.232 87.6934 198.976 87.48C198.763 87.2667 198.656 87.0107 198.656 86.712C198.656 86.1147 199.04 85.2187 199.808 84.024C200.619 82.7867 201.451 81.4427 202.304 79.992C202.859 79.0534 203.456 78.0934 204.096 77.112C204.779 76.088 205.355 75.1707 205.824 74.36C206.336 73.5494 206.592 72.9947 206.592 72.696H206.528C206.4 72.696 206.102 72.8027 205.632 73.016C205.206 73.2294 204.971 73.3574 204.928 73.4C202.838 74.808 200.832 76.5574 198.912 78.648C197.035 80.7387 195.307 82.7227 193.728 84.6C193.43 84.984 193.11 85.3894 192.768 85.816C192.427 86.2 192.086 86.584 191.744 86.968C191.574 87.1387 191.339 87.288 191.04 87.416C190.742 87.5014 190.464 87.544 190.208 87.544C189.952 87.544 189.59 87.4587 189.12 87.288C188.694 87.1174 188.48 86.8187 188.48 86.392C188.48 85.88 188.715 85.1334 189.184 84.152C189.654 83.1707 190.23 82.0614 190.912 80.824C191.638 79.5867 192.384 78.3707 193.152 77.176C193.963 75.9387 194.688 74.8294 195.328 73.848C196.011 72.824 196.502 72.0774 196.8 71.608C195.478 72.76 194.283 73.8267 193.216 74.808C192.192 75.7467 191.019 77.0267 189.696 78.648C189.611 78.7334 189.44 78.904 189.184 79.16C188.928 79.416 188.672 79.5654 188.416 79.608C188.331 79.608 188.224 79.544 188.096 79.416C188.011 79.288 187.99 79.1814 188.032 79.096C188.075 78.8827 188.374 78.456 188.928 77.816C189.483 77.1334 190.166 76.3654 190.976 75.512C191.787 74.6587 192.598 73.8054 193.408 72.952C194.219 72.0987 194.923 71.352 195.52 70.712C196.16 70.072 196.544 69.6667 196.672 69.496C197.611 68.5147 198.443 67.7254 199.168 67.128C199.936 66.5307 200.662 66.232 201.344 66.232C201.728 66.232 202.176 66.4027 202.688 66.744C203.2 67.0854 203.456 67.4907 203.456 67.96C203.456 68.1307 203.414 68.2374 203.328 68.28C201.408 69.8587 199.702 71.672 198.208 73.72C196.715 75.7254 195.307 77.7307 193.984 79.736C193.942 79.7787 193.792 80.0134 193.536 80.44C193.323 80.8667 193.067 81.336 192.768 81.848C192.47 82.36 192.214 82.808 192 83.192C191.787 83.576 191.702 83.7467 191.744 83.704C194.006 81.5707 196.374 79.3094 198.848 76.92C201.366 74.488 203.798 72.2907 206.144 70.328C206.486 70.0294 206.87 69.7734 207.296 69.56C207.723 69.3467 208.171 69.24 208.64 69.24C209.152 69.24 209.558 69.4107 209.856 69.752C210.198 70.0507 210.368 70.456 210.368 70.968C210.368 71.5227 210.198 72.0774 209.856 72.632C209.515 73.1867 209.195 73.6987 208.896 74.168C208.47 74.936 208 75.704 207.488 76.472C207.019 77.24 206.678 77.8587 206.464 78.328C208.427 76.5787 210.304 74.8934 212.096 73.272C213.888 71.608 215.702 70.1787 217.536 68.984C217.963 68.6854 218.475 68.536 219.072 68.536C219.456 68.536 219.947 68.6 220.544 68.728C221.184 68.856 221.739 69.048 222.208 69.304C222.72 69.56 222.976 69.9227 222.976 70.392C222.976 70.648 222.891 70.904 222.72 71.16C222.55 71.3734 222.358 71.5654 222.144 71.736L219.136 74.296C218.582 74.808 217.899 75.5334 217.088 76.472C216.32 77.368 215.552 78.3707 214.784 79.48C214.059 80.5467 213.44 81.656 212.928 82.808C212.459 83.96 212.224 85.0267 212.224 86.008C212.224 86.6054 212.374 86.904 212.672 86.904C212.843 86.904 213.035 86.8614 213.248 86.776C213.462 86.648 213.696 86.52 213.952 86.392C214.848 85.88 215.808 85.1334 216.832 84.152C217.856 83.1707 218.859 82.1254 219.84 81.016C220.864 79.9067 221.76 78.9254 222.528 78.072C223.296 77.2187 223.872 76.6854 224.256 76.472C224.342 76.3867 224.448 76.3654 224.576 76.408C224.747 76.4507 224.832 76.536 224.832 76.664C224.832 76.8347 224.747 77.0267 224.576 77.24C224.406 77.4534 224.278 77.624 224.192 77.752C223.467 78.6054 222.784 79.4374 222.144 80.248C221.547 81.016 220.864 81.8267 220.096 82.68C219.2 83.704 218.198 84.792 217.088 85.944C216.022 87.0534 214.891 87.9494 213.696 88.632C213.526 88.76 213.291 88.824 212.992 88.824ZM244.309 63.928C243.328 63.928 242.837 63.5654 242.837 62.84C242.837 62.328 243.114 61.7734 243.669 61.176C244.224 60.5787 245.034 60.152 246.101 59.896C246.741 59.7254 247.253 59.64 247.637 59.64C248.064 59.5974 248.469 59.512 248.853 59.384C248.682 60.1947 248.32 61.0694 247.765 62.008C247.253 62.9467 246.57 63.5227 245.717 63.736C245.29 63.864 244.821 63.928 244.309 63.928ZM234.069 89.4C233.386 89.4 232.746 89.1227 232.149 88.568C231.594 88.0134 231.253 87.416 231.125 86.776C231.253 85.9654 231.53 84.984 231.957 83.832C232.426 82.6374 232.96 81.4 233.557 80.12C234.154 78.84 234.752 77.6454 235.349 76.536C235.946 75.384 236.458 74.4667 236.885 73.784C236.074 74.5094 235.2 75.32 234.261 76.216C233.365 77.112 232.512 77.944 231.701 78.712C231.658 78.7547 231.552 78.84 231.381 78.968C231.253 79.096 231.125 79.16 230.997 79.16C230.698 79.16 230.549 79.032 230.549 78.776C230.549 78.5627 230.634 78.3707 230.805 78.2C231.957 76.92 233.152 75.64 234.389 74.36C235.669 73.08 236.906 71.7574 238.101 70.392C238.485 69.9227 238.805 69.56 239.061 69.304C239.36 69.0054 239.808 68.856 240.405 68.856C240.661 68.856 241.045 68.92 241.557 69.048C242.112 69.1334 242.56 69.304 242.901 69.56C243.285 69.816 243.349 70.136 243.093 70.52C242.794 70.9894 242.282 71.7574 241.557 72.824C240.832 73.8907 240 75.1067 239.061 76.472C238.165 77.8374 237.269 79.224 236.373 80.632C235.52 81.9974 234.816 83.2347 234.261 84.344C233.706 85.4534 233.429 86.2854 233.429 86.84C233.429 87.096 233.514 87.224 233.685 87.224C233.941 87.224 234.368 86.9894 234.965 86.52C235.605 86.0507 236.224 85.56 236.821 85.048C237.461 84.4934 237.888 84.1307 238.101 83.96C239.338 82.8934 240.554 81.8054 241.749 80.696C242.944 79.544 244.074 78.3494 245.141 77.112C245.226 77.0267 245.333 76.8987 245.461 76.728C245.632 76.5574 245.802 76.472 245.973 76.472C246.186 76.472 246.293 76.6 246.293 76.856C246.293 77.1547 246.186 77.4534 245.973 77.752C245.418 78.4347 244.8 79.1174 244.117 79.8C243.434 80.44 242.794 81.08 242.197 81.72C241.088 82.8294 240 83.9387 238.933 85.048C237.909 86.1147 236.885 87.224 235.861 88.376C235.648 88.632 235.37 88.8667 235.029 89.08C234.73 89.2934 234.41 89.4 234.069 89.4Z" fill="black" fill-opacity="0.2"/>
</g>
<defs>
<filter id="filter0_d_181_17" x="0" y="0" width="257.853" height="101.744" filterUnits="userSpaceOnUse" color-interpolation-filters="sRGB">
<feFlood flood-opacity="0" result="BackgroundImageFix"/>
<feColorMatrix in="SourceAlpha" type="matrix" values="0 0 0 0 0 0 0 0 0 0 0 0 0 0 0 0 0 0 127 0" result="hardAlpha"/>
<feOffset dx="2" dy="4"/>
<feGaussianBlur stdDeviation="3.5"/>
<feComposite in2="hardAlpha" operator="out"/>
<feColorMatrix type="matrix" values="0 0 0 0 0 0 0 0 0 0 0 0 0 0 0 0 0 0 0.25 0"/>
<feBlend mode="hard-light" in2="BackgroundImageFix" result="effect1_dropShadow_181_17"/>
<feBlend mode="normal" in="SourceGraphic" in2="effect1_dropShadow_181_17" result="shape"/>
</filter>
</defs>
</svg>
