<svg xmlns="http://www.w3.org/2000/svg" viewBox="0 0 496 512">
  <path d="M165.9 397.4c0 2-2.3 3.6-5.2 3.6-2.9 
  0-5.2-1.6-5.2-3.6 0-2 2.3-3.6 5.2-3.6 
  2.9 0 5.2 1.6 5.2 3.6zm-32.2-3.2c-.7 1.6-2.9 
  2.1-4.9 1.2-2-.9-3.2-2.9-2.5-4.5.7-1.6 
  2.9-2.1 4.9-1.2 2 .9 3.2 2.9 2.5 4.5zm44.8 
  2.7c-2.9.7-6.1-.7-6.8-3.2-.7-2.5 
  1.2-5.2 4.1-5.9 2.9-.7 6.1.7 6.8 3.2.7 
  2.5-1.2 5.2-4.1 5.9zm50.2 2.3c-3.2 
  0-5.9-2.3-5.9-5.2s2.7-5.2 5.9-5.2c3.2 
  0 5.9 2.3 5.9 5.2s-2.7 5.2-5.9 5.2zm48.5-8.5c-.9 
  2.5-3.9 3.9-6.8 3.2-2.9-.7-4.8-3.4-3.9-5.9.9-2.5 
  3.9-3.9 6.8-3.2 2.9.7 4.8 3.4 3.9 5.9zm43.6 
  5.2c-2.9.9-6.1-.2-6.8-2.7-.9-2.5.7-5.2 3.6-6.1 
  2.9-.9 6.1.2 6.8 2.7.9 2.5-.7 5.2-3.6 
  6.1zM248 8C111 8 0 119 0 256c0 
  110.9 71.7 205.5 171.2 238.8 12.5 
  2.3 17.1-5.4 17.1-12.1 0-6.1-.2-26.3-.2-47.7 
  -69.7 15.2-84.5-33.4-84.5-33.4-11.4-29-27.7-36.7-27.7-36.7 
  -22.5-15.4 1.7-15.2 1.7-15.2 
  24.9 1.7 38 25.6 38 25.6 22.1 
  38 58.2 27.1 72.4 20.7 2.3-16 8.5-27.1 
  15.4-33.4-55.7-6.1-114.2-27.7-114.2-123.4 
  0-27.1 9.5-49.2 25.6-66.4-2.5-6.3-11.1-31.7 
  2.5-66.4 0 0 20.9-6.8 68.3 
  25.6 20-5.6 41.5-8.5 62.9-8.5s42.9 
  2.9 62.9 8.5c47.4-32.5 68.3-25.6 68.3-25.6 
  13.6 34.7 5 60.1 2.5 66.4 16.1 17.2 25.6 
  39.3 25.6 66.4 0 96-58.7 117.3-114.4 
  123.4 8.7 7.6 16.5 22.5 16.5 
  45.6 0 33-.2 59.7-.2 67.9 0 6.6 
  4.5 14.5 17.1 12.1C424.3 461.5 496 366.9 
  496 256 496 119 385 8 248 8z" fill="currentColor"/>
</svg>