<svg xmlns="http://www.w3.org/2000/svg" viewBox="0 0 448 512">
  <defs>
    <radialGradient id="ig-gradient" cx="0.3" cy="1" r="1.2">
      <stop offset="0%" stop-color="#fdf497"/>
      <stop offset="30%" stop-color="#fdf497"/>
      <stop offset="45%" stop-color="#fd5949"/>
      <stop offset="60%" stop-color="#d6249f"/>
      <stop offset="90%" stop-color="#285AEB"/>
    </radialGradient>
  </defs>
  <path d="M224.1 141c-63.6 0-114.9 51.3-114.9 
    114.9S160.5 370.8 224.1 370.8 339 319.5 
    339 255.9 287.7 141 224.1 141zm146.4-194.3H77.5C34.7-53.3-0.2-18.3-0.2 
    24.5v293.1c0 42.8 34.9 77.8 77.7 77.8h293c42.8 0 77.7-34.9 
    77.7-77.8V24.5c0-42.8-34.9-77.8-77.7-77.8zM224.1 
    338c-45.4 0-82.1-36.7-82.1-82.1s36.7-82.1 
    82.1-82.1 82.1 36.7 82.1 82.1-36.7 
    82.1-82.1 82.1zm146.4-148.7c0 
    14.9-12.1 27-27 27s-27-12.1-27-27 
    12.1-27 27-27 27 12.1 27 27z" fill="url(#ig-gradient)"/>
</svg>