<svg xmlns="http://www.w3.org/2000/svg" viewBox="0 0 576 512">
  <path d="M549.655 124.083c-6.281-23.65-24.787-42.276-48.284-48.654C458.129 
  64 288 64 288 64s-170.129 0-213.371 
  11.429c-23.497 6.378-42.003 25.004-48.284 
  48.654C16.8 167.431 16.8 256 16.8 
  256s0 88.569 9.545 131.917c6.281 
  23.65 24.787 42.276 48.284 
  48.654C117.871 448 288 448 288 
  448s170.129 0 213.371-11.429c23.497-6.378 
  42.003-25.004 48.284-48.654C559.2 344.569 
  559.2 256 559.2 256s0-88.569-9.545-131.917zM232.1 
  334.6V177.4l142.7 78.6-142.7 78.6z" fill="#FF0000"/>
</svg>